<svg width="41" height="41" viewBox="0 0 41 41" fill="none" xmlns="http://www.w3.org/2000/svg">
<foreignObject x="0" y="0" width="0" height="0"><div xmlns="http://www.w3.org/1999/xhtml" style="backdrop-filter:blur(2px);clip-path:url(#bgblur_0_16_3_clip_path);height:100%;width:100%"></div></foreignObject><circle data-figma-bg-blur-radius="4" cx="38.5" cy="3.5" r="2.5" transform="rotate(90 38.5 3.5)" fill="black"/>
<foreignObject x="0" y="0" width="0" height="0"><div xmlns="http://www.w3.org/1999/xhtml" style="backdrop-filter:blur(2px);clip-path:url(#bgblur_1_16_3_clip_path);height:100%;width:100%"></div></foreignObject><circle data-figma-bg-blur-radius="4" cx="29.5" cy="2.5" r="2.5" transform="rotate(90 29.5 2.5)" fill="black"/>
<foreignObject x="0" y="0" width="0" height="0"><div xmlns="http://www.w3.org/1999/xhtml" style="backdrop-filter:blur(2px);clip-path:url(#bgblur_2_16_3_clip_path);height:100%;width:100%"></div></foreignObject><circle data-figma-bg-blur-radius="4" cx="20.5" cy="2.5" r="2.5" transform="rotate(90 20.5 2.5)" fill="black"/>
<foreignObject x="0" y="0" width="0" height="0"><div xmlns="http://www.w3.org/1999/xhtml" style="backdrop-filter:blur(2px);clip-path:url(#bgblur_3_16_3_clip_path);height:100%;width:100%"></div></foreignObject><circle data-figma-bg-blur-radius="4" cx="11.5" cy="2.5" r="2.5" transform="rotate(90 11.5 2.5)" fill="black"/>
<foreignObject x="0" y="0" width="0" height="0"><div xmlns="http://www.w3.org/1999/xhtml" style="backdrop-filter:blur(2px);clip-path:url(#bgblur_4_16_3_clip_path);height:100%;width:100%"></div></foreignObject><circle data-figma-bg-blur-radius="4" cx="2.5" cy="2.5" r="2.5" transform="rotate(90 2.5 2.5)" fill="black"/>
<foreignObject x="0" y="0" width="0" height="0"><div xmlns="http://www.w3.org/1999/xhtml" style="backdrop-filter:blur(2px);clip-path:url(#bgblur_5_16_3_clip_path);height:100%;width:100%"></div></foreignObject><circle data-figma-bg-blur-radius="4" cx="38.5" cy="12.5" r="2.5" transform="rotate(90 38.5 12.5)" fill="black"/>
<foreignObject x="0" y="0" width="0" height="0"><div xmlns="http://www.w3.org/1999/xhtml" style="backdrop-filter:blur(2px);clip-path:url(#bgblur_6_16_3_clip_path);height:100%;width:100%"></div></foreignObject><circle data-figma-bg-blur-radius="4" cx="29.5" cy="11.5" r="2.5" transform="rotate(90 29.5 11.5)" fill="black"/>
<foreignObject x="0" y="0" width="0" height="0"><div xmlns="http://www.w3.org/1999/xhtml" style="backdrop-filter:blur(2px);clip-path:url(#bgblur_7_16_3_clip_path);height:100%;width:100%"></div></foreignObject><circle data-figma-bg-blur-radius="4" cx="29.5" cy="20.5" r="2.5" transform="rotate(90 29.5 20.5)" fill="black"/>
<foreignObject x="0" y="0" width="0" height="0"><div xmlns="http://www.w3.org/1999/xhtml" style="backdrop-filter:blur(2px);clip-path:url(#bgblur_8_16_3_clip_path);height:100%;width:100%"></div></foreignObject><circle data-figma-bg-blur-radius="4" cx="29.5" cy="29.5" r="2.5" transform="rotate(90 29.5 29.5)" fill="black"/>
<foreignObject x="0" y="0" width="0" height="0"><div xmlns="http://www.w3.org/1999/xhtml" style="backdrop-filter:blur(2px);clip-path:url(#bgblur_9_16_3_clip_path);height:100%;width:100%"></div></foreignObject><circle data-figma-bg-blur-radius="4" cx="29.5" cy="38.5" r="2.5" transform="rotate(90 29.5 38.5)" fill="black"/>
<foreignObject x="0" y="0" width="0" height="0"><div xmlns="http://www.w3.org/1999/xhtml" style="backdrop-filter:blur(2px);clip-path:url(#bgblur_10_16_3_clip_path);height:100%;width:100%"></div></foreignObject><circle data-figma-bg-blur-radius="4" cx="20.5" cy="11.5" r="2.5" transform="rotate(90 20.5 11.5)" fill="black"/>
<foreignObject x="0" y="0" width="0" height="0"><div xmlns="http://www.w3.org/1999/xhtml" style="backdrop-filter:blur(2px);clip-path:url(#bgblur_11_16_3_clip_path);height:100%;width:100%"></div></foreignObject><circle data-figma-bg-blur-radius="4" cx="20.5" cy="20.5" r="2.5" transform="rotate(90 20.5 20.5)" fill="#00C3D0"/>
<foreignObject x="0" y="0" width="0" height="0"><div xmlns="http://www.w3.org/1999/xhtml" style="backdrop-filter:blur(2px);clip-path:url(#bgblur_12_16_3_clip_path);height:100%;width:100%"></div></foreignObject><circle data-figma-bg-blur-radius="4" cx="20.5" cy="29.5" r="2.5" transform="rotate(90 20.5 29.5)" fill="black"/>
<foreignObject x="0" y="0" width="0" height="0"><div xmlns="http://www.w3.org/1999/xhtml" style="backdrop-filter:blur(2px);clip-path:url(#bgblur_13_16_3_clip_path);height:100%;width:100%"></div></foreignObject><circle data-figma-bg-blur-radius="4" cx="20.5" cy="38.5" r="2.5" transform="rotate(90 20.5 38.5)" fill="black"/>
<foreignObject x="0" y="0" width="0" height="0"><div xmlns="http://www.w3.org/1999/xhtml" style="backdrop-filter:blur(2px);clip-path:url(#bgblur_14_16_3_clip_path);height:100%;width:100%"></div></foreignObject><circle data-figma-bg-blur-radius="4" cx="11.5" cy="11.5" r="2.5" transform="rotate(90 11.5 11.5)" fill="black"/>
<foreignObject x="0" y="0" width="0" height="0"><div xmlns="http://www.w3.org/1999/xhtml" style="backdrop-filter:blur(2px);clip-path:url(#bgblur_15_16_3_clip_path);height:100%;width:100%"></div></foreignObject><circle data-figma-bg-blur-radius="4" cx="11.5" cy="20.5" r="2.5" transform="rotate(90 11.5 20.5)" fill="black"/>
<foreignObject x="0" y="0" width="0" height="0"><div xmlns="http://www.w3.org/1999/xhtml" style="backdrop-filter:blur(2px);clip-path:url(#bgblur_16_16_3_clip_path);height:100%;width:100%"></div></foreignObject><circle data-figma-bg-blur-radius="4" cx="11.5" cy="29.5" r="2.5" transform="rotate(90 11.5 29.5)" fill="black"/>
<foreignObject x="0" y="0" width="0" height="0"><div xmlns="http://www.w3.org/1999/xhtml" style="backdrop-filter:blur(2px);clip-path:url(#bgblur_17_16_3_clip_path);height:100%;width:100%"></div></foreignObject><circle data-figma-bg-blur-radius="4" cx="11.5" cy="38.5" r="2.5" transform="rotate(90 11.5 38.5)" fill="black"/>
<foreignObject x="0" y="0" width="0" height="0"><div xmlns="http://www.w3.org/1999/xhtml" style="backdrop-filter:blur(2px);clip-path:url(#bgblur_18_16_3_clip_path);height:100%;width:100%"></div></foreignObject><circle data-figma-bg-blur-radius="4" cx="2.5" cy="11.5" r="2.5" transform="rotate(90 2.5 11.5)" fill="black"/>
<foreignObject x="0" y="0" width="0" height="0"><div xmlns="http://www.w3.org/1999/xhtml" style="backdrop-filter:blur(2px);clip-path:url(#bgblur_19_16_3_clip_path);height:100%;width:100%"></div></foreignObject><circle data-figma-bg-blur-radius="4" cx="2.5" cy="20.5" r="2.5" transform="rotate(90 2.5 20.5)" fill="black"/>
<foreignObject x="0" y="0" width="0" height="0"><div xmlns="http://www.w3.org/1999/xhtml" style="backdrop-filter:blur(2px);clip-path:url(#bgblur_20_16_3_clip_path);height:100%;width:100%"></div></foreignObject><circle data-figma-bg-blur-radius="4" cx="2.5" cy="29.5" r="2.5" transform="rotate(90 2.5 29.5)" fill="black"/>
<foreignObject x="0" y="0" width="0" height="0"><div xmlns="http://www.w3.org/1999/xhtml" style="backdrop-filter:blur(2px);clip-path:url(#bgblur_21_16_3_clip_path);height:100%;width:100%"></div></foreignObject><circle data-figma-bg-blur-radius="4" cx="2.5" cy="38.5" r="2.5" transform="rotate(90 2.5 38.5)" fill="black"/>
<foreignObject x="0" y="0" width="0" height="0"><div xmlns="http://www.w3.org/1999/xhtml" style="backdrop-filter:blur(2px);clip-path:url(#bgblur_22_16_3_clip_path);height:100%;width:100%"></div></foreignObject><circle data-figma-bg-blur-radius="4" cx="38.5" cy="21.5" r="2.5" transform="rotate(90 38.5 21.5)" fill="black"/>
<foreignObject x="0" y="0" width="0" height="0"><div xmlns="http://www.w3.org/1999/xhtml" style="backdrop-filter:blur(2px);clip-path:url(#bgblur_23_16_3_clip_path);height:100%;width:100%"></div></foreignObject><circle data-figma-bg-blur-radius="4" cx="38.5" cy="30.5" r="2.5" transform="rotate(90 38.5 30.5)" fill="black"/>
<foreignObject x="0" y="0" width="0" height="0"><div xmlns="http://www.w3.org/1999/xhtml" style="backdrop-filter:blur(2px);clip-path:url(#bgblur_24_16_3_clip_path);height:100%;width:100%"></div></foreignObject><circle data-figma-bg-blur-radius="4" cx="38.5" cy="38.5" r="2.5" transform="rotate(90 38.5 38.5)" fill="black"/>
<defs>
<clipPath id="bgblur_0_16_3_clip_path" transform="translate(0 0)"><circle cx="38.5" cy="3.5" r="2.5" transform="rotate(90 38.5 3.5)"/>
</clipPath><clipPath id="bgblur_1_16_3_clip_path" transform="translate(0 0)"><circle cx="29.5" cy="2.5" r="2.5" transform="rotate(90 29.5 2.5)"/>
</clipPath><clipPath id="bgblur_2_16_3_clip_path" transform="translate(0 0)"><circle cx="20.5" cy="2.5" r="2.5" transform="rotate(90 20.5 2.5)"/>
</clipPath><clipPath id="bgblur_3_16_3_clip_path" transform="translate(0 0)"><circle cx="11.5" cy="2.5" r="2.5" transform="rotate(90 11.5 2.5)"/>
</clipPath><clipPath id="bgblur_4_16_3_clip_path" transform="translate(0 0)"><circle cx="2.5" cy="2.5" r="2.5" transform="rotate(90 2.5 2.5)"/>
</clipPath><clipPath id="bgblur_5_16_3_clip_path" transform="translate(0 0)"><circle cx="38.5" cy="12.5" r="2.5" transform="rotate(90 38.5 12.5)"/>
</clipPath><clipPath id="bgblur_6_16_3_clip_path" transform="translate(0 0)"><circle cx="29.5" cy="11.5" r="2.5" transform="rotate(90 29.5 11.5)"/>
</clipPath><clipPath id="bgblur_7_16_3_clip_path" transform="translate(0 0)"><circle cx="29.5" cy="20.5" r="2.5" transform="rotate(90 29.5 20.5)"/>
</clipPath><clipPath id="bgblur_8_16_3_clip_path" transform="translate(0 0)"><circle cx="29.5" cy="29.5" r="2.5" transform="rotate(90 29.5 29.5)"/>
</clipPath><clipPath id="bgblur_9_16_3_clip_path" transform="translate(0 0)"><circle cx="29.5" cy="38.5" r="2.5" transform="rotate(90 29.5 38.5)"/>
</clipPath><clipPath id="bgblur_10_16_3_clip_path" transform="translate(0 0)"><circle cx="20.5" cy="11.5" r="2.5" transform="rotate(90 20.5 11.5)"/>
</clipPath><clipPath id="bgblur_11_16_3_clip_path" transform="translate(0 0)"><circle cx="20.5" cy="20.5" r="2.5" transform="rotate(90 20.5 20.5)"/>
</clipPath><clipPath id="bgblur_12_16_3_clip_path" transform="translate(0 0)"><circle cx="20.5" cy="29.5" r="2.5" transform="rotate(90 20.5 29.5)"/>
</clipPath><clipPath id="bgblur_13_16_3_clip_path" transform="translate(0 0)"><circle cx="20.5" cy="38.5" r="2.5" transform="rotate(90 20.5 38.5)"/>
</clipPath><clipPath id="bgblur_14_16_3_clip_path" transform="translate(0 0)"><circle cx="11.5" cy="11.5" r="2.5" transform="rotate(90 11.5 11.5)"/>
</clipPath><clipPath id="bgblur_15_16_3_clip_path" transform="translate(0 0)"><circle cx="11.5" cy="20.5" r="2.5" transform="rotate(90 11.5 20.5)"/>
</clipPath><clipPath id="bgblur_16_16_3_clip_path" transform="translate(0 0)"><circle cx="11.5" cy="29.5" r="2.5" transform="rotate(90 11.5 29.5)"/>
</clipPath><clipPath id="bgblur_17_16_3_clip_path" transform="translate(0 0)"><circle cx="11.5" cy="38.5" r="2.5" transform="rotate(90 11.5 38.5)"/>
</clipPath><clipPath id="bgblur_18_16_3_clip_path" transform="translate(0 0)"><circle cx="2.5" cy="11.5" r="2.5" transform="rotate(90 2.5 11.5)"/>
</clipPath><clipPath id="bgblur_19_16_3_clip_path" transform="translate(0 0)"><circle cx="2.5" cy="20.5" r="2.5" transform="rotate(90 2.5 20.5)"/>
</clipPath><clipPath id="bgblur_20_16_3_clip_path" transform="translate(0 0)"><circle cx="2.5" cy="29.5" r="2.5" transform="rotate(90 2.5 29.5)"/>
</clipPath><clipPath id="bgblur_21_16_3_clip_path" transform="translate(0 0)"><circle cx="2.5" cy="38.5" r="2.5" transform="rotate(90 2.5 38.5)"/>
</clipPath><clipPath id="bgblur_22_16_3_clip_path" transform="translate(0 0)"><circle cx="38.5" cy="21.5" r="2.5" transform="rotate(90 38.5 21.5)"/>
</clipPath><clipPath id="bgblur_23_16_3_clip_path" transform="translate(0 0)"><circle cx="38.5" cy="30.5" r="2.5" transform="rotate(90 38.5 30.5)"/>
</clipPath><clipPath id="bgblur_24_16_3_clip_path" transform="translate(0 0)"><circle cx="38.5" cy="38.5" r="2.5" transform="rotate(90 38.5 38.5)"/>
</clipPath></defs>
</svg>
